<svg width="67" height="88" viewBox="0 0 67 88" fill="none" xmlns="http://www.w3.org/2000/svg">
<path d="M11.6315 29.2007C11.0363 27.1852 10.4648 25.1663 10.0353 23.2319C7.21155 21.5613 5.2907 18.5211 5.2907 15.0074C5.2907 9.72174 9.58893 5.42689 14.8713 5.42689C20.1536 5.42689 24.4518 9.72512 24.4518 15.0074C24.4518 15.7345 24.3537 16.4346 24.2016 17.1143C25.118 19.1332 25.8586 21.4058 26.5079 23.7155C28.3341 21.2806 29.4568 18.2878 29.4568 15.0074C29.4568 6.94869 22.93 0.421875 14.8713 0.421875C6.8125 0.421875 0.289063 6.94869 0.289063 15.0074C0.289063 21.9468 5.1419 27.7263 11.6315 29.2007Z" fill="#555555"/>
<path d="M1.55957 63.7345C5.15439 59.8488 9.18884 61.3706 14.5895 62.1924C19.2293 62.9059 23.7981 61.6039 23.4937 59.0981C23.0135 55.0433 22.3372 53.2307 20.7985 47.9788C19.5709 43.8023 17.2408 36.2745 15.1205 29.0781C12.2798 19.4502 11.458 14.9795 15.2388 13.8635C19.3139 12.6765 21.6507 18.4661 23.7677 26.4944C26.1789 35.632 27.447 39.6664 28.1572 39.4534C29.4084 39.0949 27.6973 35.1856 30.9708 34.2218C35.0628 33.0314 35.8541 36.2305 37.0005 35.9093C38.1469 35.5643 37.758 32.3246 41.0214 31.3709C44.3018 30.424 45.9487 34.4619 47.3014 34.0594C48.6406 33.6638 48.6101 32.2062 50.6324 31.6279C52.6581 31.026 60.2806 34.4382 64.6431 49.3417C70.1182 68.08 63.9498 71.5633 65.82 77.9075L41.3799 87.2006C39.4016 82.4424 33.2738 82.0907 27.8528 79.0573C22.3913 75.9832 18.6815 69.9941 4.4476 70.285C-0.90574 70.3932 -0.652107 66.1254 1.55957 63.7345Z" fill="#555555"/>
</svg>
