<svg width="190" height="76" viewBox="0 0 190 76" fill="none" xmlns="http://www.w3.org/2000/svg">
<g clip-path="url(#clip0_582_425)">
<path d="M4.06455 69.8717H1.63248V75.0023H0V63.3418H1.63248V68.4058H4.09787L7.76262 63.3418H9.54505L5.38053 68.9889L9.74496 75.0023H7.84592L4.06455 69.8717Z" fill="#0089CF"/>
<path d="M16.6665 75.1361C15.4893 75.1361 14.4288 74.8806 13.4849 74.3699C12.5409 73.8479 11.7968 73.1316 11.2527 72.2209C10.7196 71.3103 10.4531 70.2941 10.4531 69.1726C10.4531 68.0509 10.7196 67.0347 11.2527 66.1241C11.7968 65.2135 12.5409 64.5027 13.4849 63.9919C14.4288 63.47 15.4893 63.209 16.6665 63.209C17.8325 63.209 18.8876 63.47 19.8315 63.9919C20.7755 64.5027 21.514 65.2135 22.047 66.1241C22.5801 67.0236 22.8466 68.0398 22.8466 69.1726C22.8466 70.3053 22.5801 71.327 22.047 72.2376C21.514 73.1372 20.7755 73.8479 19.8315 74.3699C18.8876 74.8806 17.8325 75.1361 16.6665 75.1361ZM16.6665 73.6535C17.5216 73.6535 18.2879 73.4592 18.9653 73.0705C19.6539 72.6818 20.1924 72.1488 20.5811 71.4713C20.981 70.7828 21.1808 70.0165 21.1808 69.1726C21.1808 68.3285 20.981 67.5678 20.5811 66.8903C20.1924 66.2019 19.6539 65.6632 18.9653 65.2746C18.2879 64.8859 17.5216 64.6915 16.6665 64.6915C15.8114 64.6915 15.0341 64.8859 14.3344 65.2746C13.6459 65.6632 13.1017 66.2019 12.7019 66.8903C12.3133 67.5678 12.1189 68.3285 12.1189 69.1726C12.1189 70.0165 12.3133 70.7828 12.7019 71.4713C13.1017 72.1488 13.6459 72.6818 14.3344 73.0705C15.0341 73.4592 15.8114 73.6535 16.6665 73.6535Z" fill="#0089CF"/>
<path d="M36.3501 75.0023L36.3335 66.5068L32.119 73.5864H31.3527L27.1382 66.5568V75.0023H25.5391V63.3418H26.905L31.7691 71.5375L36.5667 63.3418H37.9326L37.9493 75.0023H36.3501Z" fill="#0089CF"/>
<path d="M51.1255 63.3418L45.9449 72.9535C45.5339 73.7197 45.0509 74.2916 44.4956 74.6692C43.9403 75.0468 43.3351 75.2356 42.6799 75.2356C42.1691 75.2356 41.6471 75.119 41.1141 74.8857L41.5472 73.5531C41.958 73.6974 42.3245 73.7696 42.6466 73.7696C43.3795 73.7696 43.9847 73.381 44.4623 72.6036L44.7288 72.1872L40.0312 63.3418H41.8137L45.595 70.7379L49.4764 63.3418H51.1255Z" fill="#0089CF"/>
<path d="M68.1436 63.3418V75.0023H65.4451V70.2215H60.1478V75.0023H57.4492V63.3418H60.1478V67.9393H65.4451V63.3418H68.1436Z" fill="#0089CF"/>
<path d="M80.0931 72.8368V75.0023H71.0645V63.3418H79.8765V65.5073H73.7463V68.0393H79.1602V70.1382H73.7463V72.8368H80.0931Z" fill="#0089CF"/>
<path d="M95.0694 68.9222C95.7803 69.1332 96.3243 69.4775 96.7015 69.955C97.0797 70.4325 97.2678 71.0211 97.2678 71.7207C97.2678 72.7536 96.8739 73.5587 96.0852 74.1361C95.3085 74.7136 94.1917 75.0023 92.7375 75.0023H86.9902V63.3418H92.4208C93.7755 63.3418 94.8303 63.6028 95.5856 64.1247C96.341 64.6467 96.7182 65.3907 96.7182 66.3569C96.7182 66.9344 96.5746 67.4451 96.2854 67.8894C95.9962 68.3225 95.5912 68.6668 95.0694 68.9222ZM89.6722 68.1726H92.1875C92.7764 68.1726 93.2204 68.056 93.5197 67.8227C93.82 67.5784 93.9702 67.2231 93.9702 66.7567C93.9702 66.3013 93.8145 65.9516 93.504 65.7072C93.2037 65.4628 92.7653 65.3407 92.1875 65.3407H89.6722V68.1726ZM92.6373 73.0034C93.9034 73.0034 94.5365 72.5037 94.5365 71.5042C94.5365 70.5381 93.9034 70.0549 92.6373 70.0549H89.6722V73.0034H92.6373Z" fill="#0089CF"/>
<path d="M104.915 75.2029C103.727 75.2029 102.65 74.9475 101.683 74.4367C100.729 73.9147 99.9733 73.1985 99.4181 72.2878C98.874 71.3661 98.6016 70.3277 98.6016 69.1728C98.6016 68.0178 98.874 66.985 99.4181 66.0744C99.9733 65.1527 100.729 64.4363 101.683 63.9255C102.65 63.4036 103.732 63.1426 104.932 63.1426C105.943 63.1426 106.853 63.3203 107.664 63.6756C108.485 64.031 109.174 64.5418 109.729 65.2082L107.997 66.8074C107.208 65.8967 106.231 65.4414 105.065 65.4414C104.343 65.4414 103.699 65.6024 103.133 65.9245C102.567 66.2354 102.123 66.6741 101.8 67.2405C101.49 67.8068 101.334 68.4509 101.334 69.1728C101.334 69.8946 101.49 70.5388 101.8 71.1051C102.123 71.6714 102.567 72.1157 103.133 72.4377C103.699 72.7487 104.343 72.9041 105.065 72.9041C106.231 72.9041 107.208 72.4433 107.997 71.5216L109.729 73.1207C109.174 73.7981 108.485 74.3146 107.664 74.6699C106.842 75.0253 105.926 75.2029 104.915 75.2029Z" fill="#0089CF"/>
<path d="M120.517 72.8368V75.0023H111.488V63.3418H120.301V65.5073H114.171V68.0393H119.584V70.1382H114.171V72.8368H120.517Z" fill="#0089CF"/>
<path d="M132.462 63.3418C133.495 63.3418 134.388 63.5139 135.144 63.8581C135.91 64.2024 136.499 64.6911 136.909 65.3241C137.32 65.9571 137.526 66.7066 137.526 67.5729C137.526 68.428 137.32 69.1776 136.909 69.8217C136.499 70.4547 135.91 70.9434 135.144 71.2876C134.388 71.6208 133.495 71.7873 132.462 71.7873H130.113V75.0023H127.414V63.3418H132.462ZM132.311 69.5885C133.122 69.5885 133.739 69.4164 134.16 69.0721C134.583 68.7167 134.793 68.217 134.793 67.5729C134.793 66.9177 134.583 66.4179 134.16 66.0737C133.739 65.7183 133.122 65.5406 132.311 65.5406H130.113V69.5885H132.311Z" fill="#0089CF"/>
<path d="M146.618 72.5037H141.204L140.172 75.0023H137.406L142.604 63.3418H145.269L150.483 75.0023H147.65L146.618 72.5037ZM145.769 70.4547L143.92 65.9904L142.071 70.4547H145.769Z" fill="#0089CF"/>
<path d="M160.107 68.9222C160.817 69.1332 161.361 69.4775 161.74 69.955C162.117 70.4325 162.306 71.0211 162.306 71.7207C162.306 72.7536 161.911 73.5587 161.123 74.1361C160.346 74.7136 159.23 75.0023 157.775 75.0023H152.027V63.3418H157.459C158.813 63.3418 159.868 63.6028 160.623 64.1247C161.378 64.6467 161.756 65.3907 161.756 66.3569C161.756 66.9344 161.612 67.4451 161.323 67.8894C161.034 68.3225 160.628 68.6668 160.107 68.9222ZM154.71 68.1726H157.225C157.814 68.1726 158.257 68.056 158.558 67.8227C158.857 67.5784 159.007 67.2231 159.007 66.7567C159.007 66.3013 158.852 65.9516 158.541 65.7072C158.241 65.4628 157.802 65.3407 157.225 65.3407H154.71V68.1726ZM157.675 73.0034C158.941 73.0034 159.574 72.5037 159.574 71.5042C159.574 70.5381 158.941 70.0549 157.675 70.0549H154.71V73.0034H157.675Z" fill="#0089CF"/>
<path d="M175.136 63.3418V75.0023H172.437V70.2215H167.14V75.0023H164.441V63.3418H167.14V67.9393H172.437V63.3418H175.136Z" fill="#0089CF"/>
<path d="M183.62 75.2029C182.409 75.2029 181.316 74.9419 180.339 74.42C179.372 73.8981 178.611 73.1818 178.056 72.2712C177.512 71.3494 177.24 70.3166 177.24 69.1728C177.24 68.0289 177.512 67.0017 178.056 66.091C178.611 65.1693 179.372 64.4475 180.339 63.9255C181.316 63.4036 182.409 63.1426 183.62 63.1426C184.83 63.1426 185.919 63.4036 186.885 63.9255C187.851 64.4475 188.611 65.1693 189.167 66.091C189.722 67.0017 190 68.0289 190 69.1728C190 70.3166 189.722 71.3494 189.167 72.2712C188.611 73.1818 187.851 73.8981 186.885 74.42C185.919 74.9419 184.83 75.2029 183.62 75.2029ZM183.62 72.9041C184.308 72.9041 184.93 72.7487 185.485 72.4377C186.04 72.1157 186.474 71.6714 186.785 71.1051C187.107 70.5388 187.268 69.8946 187.268 69.1728C187.268 68.4509 187.107 67.8068 186.785 67.2405C186.474 66.6741 186.04 66.2354 185.485 65.9245C184.93 65.6024 184.308 65.4414 183.62 65.4414C182.931 65.4414 182.309 65.6024 181.754 65.9245C181.199 66.2354 180.76 66.6741 180.438 67.2405C180.127 67.8068 179.972 68.4509 179.972 69.1728C179.972 69.8946 180.127 70.5388 180.438 71.1051C180.76 71.6714 181.199 72.1157 181.754 72.4377C182.309 72.7487 182.931 72.9041 183.62 72.9041Z" fill="#0089CF"/>
<path d="M48.159 46.5036C55.8257 46.5036 62.0407 40.2886 62.0407 32.6219C62.0407 24.9553 55.8257 18.7402 48.159 18.7402C40.4924 18.7402 34.2773 24.9553 34.2773 32.6219C34.2773 40.2886 40.4924 46.5036 48.159 46.5036Z" fill="#0089CF"/>
<path d="M80.0848 46.5036C87.7514 46.5036 93.9665 40.2886 93.9665 32.6219C93.9665 24.9553 87.7514 18.7402 80.0848 18.7402C72.4182 18.7402 66.2031 24.9553 66.2031 32.6219C66.2031 40.2886 72.4182 46.5036 80.0848 46.5036Z" fill="#0089CF"/>
<path d="M143.249 46.5036C150.916 46.5036 157.131 40.2886 157.131 32.6219C157.131 24.9553 150.916 18.7402 143.249 18.7402C135.582 18.7402 129.367 24.9553 129.367 32.6219C129.367 40.2886 135.582 46.5036 143.249 46.5036Z" fill="#0089CF"/>
<path d="M125.201 12.4932H97.4375V46.5033H125.201V12.4932Z" fill="url(#paint0_linear_582_425)"/>
<g filter="url(#filter0_i_582_425)">
<path d="M111.319 27.7634C118.986 27.7634 125.201 21.5483 125.201 13.8817C125.201 6.21504 118.986 0 111.319 0C103.653 0 97.4375 6.21504 97.4375 13.8817C97.4375 21.5483 103.653 27.7634 111.319 27.7634Z" fill="#00CD6A"/>
</g>
</g>
<defs>
<filter id="filter0_i_582_425" x="97.4375" y="-0.325714" width="27.7637" height="28.0894" filterUnits="userSpaceOnUse" color-interpolation-filters="sRGB">
<feFlood flood-opacity="0" result="BackgroundImageFix"/>
<feBlend mode="normal" in="SourceGraphic" in2="BackgroundImageFix" result="shape"/>
<feColorMatrix in="SourceAlpha" type="matrix" values="0 0 0 0 0 0 0 0 0 0 0 0 0 0 0 0 0 0 127 0" result="hardAlpha"/>
<feOffset dy="-0.325714"/>
<feGaussianBlur stdDeviation="0.434286"/>
<feComposite in2="hardAlpha" operator="arithmetic" k2="-1" k3="1"/>
<feColorMatrix type="matrix" values="0 0 0 0 0.316667 0 0 0 0 0.316667 0 0 0 0 0.316667 0 0 0 0.25 0"/>
<feBlend mode="normal" in2="shape" result="effect1_innerShadow_582_425"/>
</filter>
<linearGradient id="paint0_linear_582_425" x1="111.319" y1="0.693788" x2="111.319" y2="46.5033" gradientUnits="userSpaceOnUse">
<stop stop-color="#00F27C"/>
<stop offset="1" stop-color="#00CD69" stop-opacity="0"/>
</linearGradient>
<clipPath id="clip0_582_425">
<rect width="190" height="76" fill="white"/>
</clipPath>
</defs>
</svg>
