<svg width="100" height="68" viewBox="0 0 100 68" fill="none" xmlns="http://www.w3.org/2000/svg">
<path d="M97.9153 11.113C97.3491 9.09311 96.2461 7.26442 94.7237 5.82131C93.1582 4.33383 91.2395 3.2698 89.1487 2.72965C81.3237 0.667146 49.9737 0.667146 49.9737 0.667146C36.9042 0.518449 23.838 1.17246 10.8487 2.62548C8.75779 3.20553 6.84268 4.29334 5.27367 5.79215C3.732 7.27548 2.61533 9.10465 2.032 11.1088C0.630719 18.6577 -0.0501179 26.3227 -0.00133465 34.0005C-0.0513347 41.6713 0.627832 49.3338 2.032 56.8921C2.60283 58.888 3.71533 60.7088 5.26117 62.1797C6.807 63.6505 8.732 64.713 10.8487 65.2755C18.7778 67.3338 49.9737 67.3338 49.9737 67.3338C63.0598 67.4827 76.1427 66.8287 89.1487 65.3755C91.2395 64.8353 93.1582 63.7713 94.7237 62.2838C96.2653 60.813 97.3612 58.9838 97.9112 56.9922C99.349 49.4461 100.048 41.7779 99.9987 34.0963C100.107 26.3822 99.4086 18.6778 97.9153 11.1088V11.113ZM40.007 48.2672V19.738L66.0903 34.0047L40.007 48.2672Z" fill="white"/>
</svg>
